<?xml version="1.0" standalone="no"?>
<!DOCTYPE svg PUBLIC "-//W3C//DTD SVG 20010904//EN"
 "http://www.w3.org/TR/2001/REC-SVG-20010904/DTD/svg10.dtd">
<svg version="1.0" xmlns="http://www.w3.org/2000/svg"
 width="700.000000pt" height="700.000000pt" viewBox="0 0 700.000000 700.000000"
 preserveAspectRatio="xMidYMid meet">
<metadata>
Created by potrace 1.11, written by Peter Selinger 2001-2013
</metadata>
<g transform="translate(0.000000,700.000000) scale(0.100000,-0.100000)"
fill="#000000" stroke="none">
<path d="M1995 6010 c-99 -59 -265 -159 -370 -221 -104 -62 -201 -121 -215
-130 -14 -9 -152 -93 -307 -185 -155 -93 -328 -197 -385 -231 -57 -34 -146
-87 -198 -118 -52 -30 -176 -105 -275 -165 -99 -61 -195 -118 -213 -127 l-32
-17 0 -2189 0 -2189 33 20 c69 42 239 143 266 160 17 9 67 39 113 67 46 27 92
54 103 61 11 6 58 34 105 63 47 28 92 55 100 60 8 5 321 193 695 418 374 224
689 413 700 419 11 5 32 18 46 27 26 17 27 17 125 -42 226 -136 529 -317 563
-337 20 -12 73 -44 117 -71 45 -28 85 -52 90 -54 5 -2 295 -175 644 -385 349
-210 645 -386 657 -393 20 -10 30 -7 78 24 31 19 57 35 58 35 1 0 212 126 467
279 872 524 942 566 969 581 115 66 609 365 620 376 12 11 14 326 15 2184 1
1195 -2 2176 -5 2181 -4 8 -93 -41 -289 -160 -156 -94 -779 -469 -793 -476
-10 -5 -171 -102 -357 -215 -187 -113 -348 -209 -358 -215 -10 -5 -101 -59
-202 -120 -101 -60 -187 -109 -190 -108 -3 1 -493 294 -1089 652 -596 358
-1089 651 -1095 651 -6 -1 -92 -50 -191 -110z m325 -400 c63 -39 122 -74 130
-79 15 -9 721 -434 750 -451 36 -22 208 -125 241 -144 20 -12 141 -84 268
-161 127 -77 241 -146 254 -152 12 -7 110 -65 217 -130 l195 -118 0 -1743 c0
-959 -2 -1745 -5 -1747 -3 -2 -241 139 -530 312 -289 174 -541 326 -562 337
-39 23 -168 100 -718 431 -195 118 -359 216 -364 217 -4 2 -8 764 -8 1693 1
1975 0 1805 10 1805 4 0 59 -32 122 -70z"/>
</g>
</svg>
